<svg version="1.1" xmlns="http://www.w3.org/2000/svg" xmlns:xlink="http://www.w3.org/1999/xlink" width="273.7px" height="273.9px" viewBox="0,0,255.8125,256"><g transform="translate(38.37188,38.4) scale(0.7,0.7)"><g fill="#000000" fill-rule="nonzero" stroke="none" stroke-width="1" stroke-linecap="butt" stroke-linejoin="miter" stroke-miterlimit="10" stroke-dasharray="" stroke-dashoffset="0" font-family="none" font-weight="none" font-size="none" text-anchor="none" style="mix-blend-mode: normal"><g transform="translate(-0.00029,0.04864) scale(0.93465,0.93465)"><g><path d="M213.8,52.2c-9.2,-8.8 -19.2,-16.7 -29.9,-23.7c-0.9,-0.6 -1.9,-0.9 -3,-0.9c-7.2,-0.3 -14.4,0.2 -21.4,1.6c-0.3,0 -0.5,0.2 -0.7,0.4c-0.2,0.2 -0.3,0.4 -0.3,0.7c0,0.3 0,0.5 0.1,0.8c0.1,0.2 0.3,0.4 0.6,0.5c41.8,21.4 77.7,61.6 92.3,105.9c12.8,35.6 8.6,82.1 -21.3,104.3c-12.3,9.4 -27,15 -42.4,16.2c-0.9,0.1 -1.7,0.3 -2.4,0.8c-7,4.3 -14.3,8.2 -21.8,11.6c-0.2,0.1 -0.4,0.3 -0.6,0.6c-0.1,0.2 -0.2,0.5 -0.1,0.8c0,0.3 0.2,0.5 0.3,0.7c0.2,0.2 0.4,0.3 0.7,0.4c72.2,8.7 122.7,-46.8 106.9,-122c-8,-37.9 -28.8,-71.7 -57,-98.7z"></path><path d="M59.8,221.7c9.2,8.8 19.2,16.7 29.9,23.7c0.9,0.6 1.9,0.9 3,0.9c7.2,0.3 14.4,-0.2 21.4,-1.6c0.3,0 0.5,-0.2 0.7,-0.4c0.2,-0.2 0.3,-0.4 0.3,-0.7c0,-0.3 0,-0.5 -0.1,-0.8c-0.1,-0.2 -0.3,-0.4 -0.6,-0.6c-41.9,-21.4 -77.7,-61.5 -92.4,-105.9c-12.7,-35.5 -8.5,-82 21.4,-104.2c12.2,-9.5 27,-15.1 42.5,-16.3c0.9,-0.1 1.7,-0.3 2.4,-0.8c7,-4.3 14.3,-8.2 21.8,-11.6c0.2,-0.1 0.4,-0.3 0.6,-0.5c0.1,-0.2 0.2,-0.5 0.1,-0.8c0,-0.3 -0.2,-0.5 -0.3,-0.7c-0.2,-0.2 -0.4,-0.3 -0.7,-0.4c-72.2,-8.8 -122.7,46.6 -106.9,121.8c8,38.1 28.7,71.9 56.9,98.9z"></path><path d="M221.4,214c8.8,-9.2 16.7,-19.2 23.6,-29.9c0.6,-0.9 0.9,-1.9 0.9,-3c0.3,-7.2 -0.2,-14.4 -1.6,-21.5c0,-0.3 -0.2,-0.5 -0.4,-0.7c-0.2,-0.2 -0.4,-0.3 -0.7,-0.3c-0.3,0 -0.5,0 -0.8,0.1c-0.2,0.1 -0.4,0.3 -0.5,0.6c-21.4,41.9 -61.5,77.8 -105.8,92.4c-35.6,12.8 -82,8.6 -104.2,-21.3c-9.4,-12.3 -15,-27 -16.2,-42.5c-0.1,-0.9 -0.4,-1.7 -0.8,-2.4c-4.3,-7.1 -8.2,-14.4 -11.6,-22c-0.1,-0.2 -0.3,-0.4 -0.6,-0.6c-0.3,-0.2 -0.5,-0.2 -0.8,-0.1c-0.3,0 -0.5,0.2 -0.7,0.4c0,0.3 -0.2,0.5 -0.2,0.8c-8.7,72.2 46.8,122.9 121.9,107c37.9,-8 71.6,-28.7 98.5,-57z"></path><path d="M52.2,59.9c-8.8,9.2 -16.7,19.2 -23.6,29.9c-0.6,0.9 -0.9,1.9 -0.9,3c-0.3,7.2 0.2,14.4 1.6,21.5c0.1,0.3 0.2,0.5 0.4,0.7c0.2,0.2 0.4,0.3 0.7,0.3c0.3,0 0.5,0 0.8,-0.1c0.2,-0.1 0.4,-0.3 0.6,-0.5c21.1,-42 61.2,-78 105.5,-92.6c35.6,-12.8 82,-8.6 104.2,21.3c9.4,12.3 15,27 16.2,42.4c0.1,0.9 0.4,1.7 0.8,2.4c4.3,7.1 8.2,14.4 11.6,22c0.1,0.2 0.3,0.4 0.6,0.5c0.2,0.1 0.5,0.2 0.8,0.1c0.3,0 0.5,-0.2 0.7,-0.3c0.2,-0.2 0.3,-0.4 0.4,-0.7c8.7,-72.3 -46.7,-122.9 -121.9,-107c-37.9,8.1 -71.6,28.8 -98.5,57.1z"></path></g></g></g></g></svg>